<svg width="295" height="138" viewBox="0 0 295 138" fill="none" xmlns="http://www.w3.org/2000/svg">
<path d="M61.2035 78.8027C61.214 78.7136 61.2192 78.6246 61.2297 78.5355C61.2454 78.3364 61.1459 78.195 61.0044 78.0693C60.8472 77.9331 60.5329 77.6606 59.8571 77.0896C59.0451 76.398 57.8977 75.4027 56.8185 74.1191C55.8336 72.9561 54.6548 71.6621 53.6804 70.2842C53.5913 70.1585 53.5913 69.9909 53.6856 69.8651C55.2102 67.8691 57.0909 64.5267 58.4373 62.1273C59.8728 59.5654 61.0358 56.7679 61.8845 53.8079C61.9107 53.7136 61.895 53.6193 61.8426 53.5459C61.7902 53.4726 61.7012 53.4307 61.6069 53.4307H38.2518C38.0737 53.4307 37.9113 53.5721 37.8903 53.7502L36.9316 59.3664C36.9107 59.5445 37.0364 59.6859 37.2145 59.6859H51.3177C51.6163 59.6859 51.8154 59.9793 51.6739 60.2255C50.0865 63.0493 48.1481 65.8783 46.4717 67.7434C44.5909 69.8389 42.3958 71.7459 40.3159 73.4171C38.2937 75.0412 36.2505 76.44 33.8249 77.5768C33.5735 77.6921 33.4477 77.8388 33.3744 78.174L31.7503 85.3304C31.7294 85.519 31.8551 85.6709 32.0385 85.6709C32.1328 85.6709 32.1485 85.6709 33.673 85.0108C34.6474 84.5865 36.4968 83.7744 38.1156 82.8576C39.7239 81.9408 41.5261 80.7149 43.4593 79.2166C45.1724 77.8964 47.2208 76.3509 48.9601 74.6221C49.1383 74.4439 49.4421 74.4701 49.5836 74.6692C50.558 76.0732 51.5848 77.3882 52.6379 78.5932C53.8795 80.0077 55.0792 81.2283 56.2003 82.2237C57.3214 83.2191 58.5997 84.2093 60.0038 85.2675C60.0981 85.3409 60.229 85.3461 60.3443 85.2885C60.4596 85.2309 60.5381 85.1156 60.5486 84.9899C60.5643 84.8065 60.5853 84.6284 60.601 84.445L61.1982 78.8027H61.2035Z" fill="white"/>
<path d="M70.3975 53.4304C70.2455 53.4304 70.1251 53.5509 70.0569 53.6923C69.0354 55.8351 67.9876 57.9254 66.4159 59.7852C65.5672 60.7858 64.8338 61.535 64.226 62.0013C63.5555 62.5199 63.3669 62.6561 63.3145 62.6876C63.1992 62.7399 63.1102 62.8552 63.0997 62.9862L62.3767 70.7136C62.3662 70.8445 62.4239 70.9598 62.5339 71.0174C62.7225 71.117 62.7749 71.1432 64.5666 69.9434C65.6563 69.2152 67.0813 68.0889 68.7996 66.601C70.4656 65.1603 72.4668 62.7452 74.3371 59.8638C74.4105 59.7538 74.5415 59.6804 74.6829 59.6804H83.0285C83.2695 59.6804 83.4581 59.8743 83.4267 60.0943C83.2223 61.4197 82.7404 63.2691 82.3736 64.123C82.316 64.2645 82.1641 64.3483 82.0017 64.3483H72.3621C72.1839 64.3483 72.0268 64.495 72.0111 64.6783L71.5291 70.394C71.5134 70.5826 71.6496 70.7293 71.8277 70.7293H78.7483C78.5964 70.7293 77.9677 71.5675 77.8315 71.709C77.4857 72.0652 77.1242 72.4162 76.7575 72.7515C73.8447 75.3814 70.1617 77.2936 66.4526 78.1947C65.5672 78.4095 65.0852 78.5248 65.0486 78.5353C64.8652 78.5353 64.7028 78.6872 64.6871 78.8758L64.137 85.0263C64.1265 85.1206 64.1579 85.2149 64.2156 85.2777C64.2732 85.3406 64.3099 85.3773 64.4461 85.3773C64.6504 85.3773 65.0852 85.2882 66.1697 85.0525C67.2594 84.8115 68.7053 84.3662 70.4656 83.7323C72.2311 83.0879 74.1643 82.103 76.2074 80.898C78.2558 79.6931 80.32 78.1423 82.3422 76.293C84.3697 74.4384 86.1299 72.1019 87.5759 69.3567C89.0061 66.6377 90.0172 63.4105 90.583 59.7538C90.583 59.7433 90.583 59.7276 90.583 59.7171L90.9654 53.7447C90.9759 53.5666 90.8449 53.4199 90.6668 53.4199H70.408L70.3975 53.4304Z" fill="white"/>
<path d="M94.35 59.6699H110.575C110.968 59.6699 111.298 59.3712 111.314 59.0097L111.513 54.1166C111.528 53.7446 111.209 53.4355 110.805 53.4355H94.6957C94.3028 53.4355 93.9623 53.7342 93.9413 54.0957L93.648 58.9783C93.627 59.3555 93.9413 59.6699 94.35 59.6699Z" fill="white"/>
<path d="M118.805 64.3584H93.0036C92.6159 64.3584 92.2754 64.6518 92.2544 65.0133L91.9453 70.0479C91.9244 70.4303 92.2387 70.7446 92.6526 70.7446H102.963C103.214 70.7446 103.413 70.9647 103.361 71.1952C103.036 72.7249 102.444 73.9613 101.606 74.8834C100.61 75.9731 99.4213 76.7799 98.0591 77.2828C96.6708 77.7962 95.4554 78.1263 94.4548 78.2625C93.3494 78.4144 93.056 78.4354 92.9774 78.4406C92.9145 78.4301 92.8464 78.4406 92.7836 78.4615C92.6578 78.5139 92.574 78.6292 92.5635 78.7602L92.1863 85.0102C92.1811 85.0992 92.2125 85.1831 92.2754 85.2459C92.333 85.3036 92.3697 85.3402 92.553 85.3402C92.7783 85.3402 93.2236 85.2878 94.2033 85.1569C95.293 85.0102 96.6918 84.6854 98.3578 84.1877C100.029 83.69 101.805 82.8884 103.633 81.8197C105.477 80.7405 107.07 79.2474 108.359 77.3928C109.548 75.6797 110.339 73.5527 110.722 71.0694C110.748 70.8861 110.915 70.7446 111.114 70.7446H118.617C119.015 70.7446 119.345 70.4513 119.355 70.0793L119.512 65.0447C119.523 64.6675 119.203 64.3636 118.795 64.3636L118.805 64.3584Z" fill="white"/>
<path d="M143.48 61.5556L137.293 61.4561C136.968 61.4561 136.56 61.6709 136.387 61.9276C134.731 64.4213 133.175 65.8882 131.211 67.5803C129.251 69.262 127.35 70.2574 125.553 71.2161C123.824 72.133 122.173 73.0131 120.005 73.8251C119.685 73.9456 119.46 74.2285 119.449 74.5481L119.276 80.0018C119.276 80.1013 119.324 80.1956 119.407 80.2533C119.491 80.3109 119.601 80.3266 119.701 80.2952C121.712 79.677 123.593 78.9645 125.296 78.1787C126.627 77.5657 128.01 76.7904 129.419 75.8683C129.691 75.6902 130.063 75.8683 130.058 76.1722L129.885 84.8949C129.885 85.1045 130.063 85.2774 130.289 85.2774H135.732C135.952 85.2774 136.135 85.1097 136.135 84.9054L136.313 71.2685C136.313 71.1742 136.35 71.0904 136.418 71.0223C137.56 69.8959 138.818 68.5653 140.159 67.0669C141.584 65.4795 142.794 63.7717 143.763 61.9852C143.81 61.8909 143.81 61.7809 143.747 61.697C143.69 61.608 143.585 61.5556 143.475 61.5556H143.48Z" fill="white"/>
<path d="M119.156 53.4355H117.391C116.987 53.4355 116.657 53.7289 116.647 54.1009L116.469 59.0988C116.453 59.476 116.778 59.7799 117.181 59.7799H118.963C119.361 59.7799 119.701 59.476 119.712 59.1093L119.869 54.1166C119.879 53.7446 119.56 53.4408 119.156 53.4408V53.4355Z" fill="white"/>
<path d="M113.126 59.7799H114.918C115.311 59.7799 115.641 59.4812 115.657 59.1198L115.835 54.1218C115.85 53.7446 115.526 53.4355 115.117 53.4355H113.351C112.953 53.4355 112.628 53.7237 112.613 54.0904L112.414 59.0936C112.398 59.4708 112.717 59.7746 113.126 59.7746V59.7799Z" fill="white"/>
<path d="M93.5692 33.4176H86.198L86.3342 30.7929C86.3342 30.751 86.3238 30.7143 86.2923 30.6829C86.2661 30.6515 86.2242 30.6357 86.1823 30.6357H83.631C83.5524 30.6357 83.4843 30.6986 83.479 30.7772L83.3376 33.4176H79.1569C79.0783 33.4176 79.0102 33.4805 79.005 33.5591L78.8845 35.6965C78.8845 35.7384 78.895 35.7751 78.9264 35.8065C78.9579 35.838 78.9945 35.8537 79.0364 35.8537H83.1071C82.9656 37.6978 82.6565 39.1123 82.185 40.0658C81.6978 41.0455 81.0849 41.8575 80.3619 42.4809C79.6337 43.1096 78.9579 43.5549 78.3606 43.8011C78.3082 43.8221 78.2716 43.8745 78.2716 43.9269L78.1196 46.5463C78.1196 46.5987 78.1406 46.6459 78.1825 46.6773C78.2087 46.693 78.2401 46.7035 78.2663 46.7035C78.2873 46.7035 78.3082 46.7035 78.3239 46.693C79.3089 46.2844 80.4143 45.6347 81.6087 44.7651C82.8137 43.8902 83.8196 42.7324 84.6002 41.3179C85.3598 39.94 85.8208 38.1012 85.9675 35.8537H90.7716C90.714 37.7397 90.6249 39.238 90.5097 40.3172C90.3944 41.4227 90.2844 42.3028 90.1848 42.9262C90.0748 43.644 89.9072 43.8797 89.7867 43.9583C89.5928 44.0788 89.3099 44.1469 88.9432 44.1574C88.105 44.1469 87.3768 44.084 86.7848 43.9792C86.1875 43.8745 85.8208 43.8011 85.7003 43.7592C85.6532 43.7435 85.606 43.754 85.5694 43.7802C85.5327 43.8064 85.5065 43.8483 85.5065 43.8954L85.3912 46.0853C85.3912 46.1586 85.4332 46.2215 85.5065 46.2372C85.999 46.3577 86.57 46.4677 87.1987 46.5568C87.8273 46.6459 88.587 46.6563 89.4514 46.5882C90.3106 46.5201 91.0807 46.2844 91.746 45.8862C92.4376 45.4723 92.8881 44.4088 93.1134 42.6381C93.3334 40.9407 93.4906 38.777 93.5954 36.1995L93.7159 33.5852C93.7159 33.5433 93.7002 33.5067 93.674 33.4752C93.6478 33.4438 93.6058 33.4281 93.5639 33.4281L93.5692 33.4176Z" fill="white"/>
<path d="M108.28 31.7412H95.9635C95.8849 31.7412 95.8168 31.8041 95.8116 31.8827L95.7173 34.0725C95.7173 34.1144 95.733 34.1511 95.7592 34.1825C95.7854 34.214 95.8273 34.2297 95.8692 34.2297H105.75C105.582 36.2519 105.179 37.8341 104.555 38.9342C103.911 40.0658 103.141 40.9931 102.261 41.6899C101.381 42.3919 100.474 42.9158 99.5679 43.2511C98.6616 43.5916 97.7395 43.8431 96.8332 44.0055C96.7651 44.016 96.7127 44.0736 96.7074 44.147L96.6131 46.3578C96.6131 46.4049 96.6289 46.4468 96.6655 46.473C96.6917 46.4992 96.7284 46.5097 96.7651 46.5097C96.7755 46.5097 96.7808 46.5097 96.7913 46.5097C97.5195 46.3892 98.3315 46.1954 99.2012 45.9387C100.076 45.682 101.019 45.2995 102.004 44.8018C102.994 44.3041 103.948 43.5969 104.838 42.7062C105.724 41.8156 106.515 40.6683 107.191 39.2905C107.861 37.9179 108.249 36.2519 108.343 34.3449L108.427 31.8984C108.427 31.8565 108.411 31.8198 108.385 31.7884C108.359 31.7569 108.317 31.7412 108.275 31.7412H108.28Z" fill="white"/>
<path d="M119.958 43.8852H116.081L116.291 36.1264H119.811C119.895 36.1264 119.958 36.0636 119.963 35.9797L120.005 34.1618C120.005 34.1199 119.989 34.0832 119.963 34.057C119.937 34.0309 119.895 34.0151 119.858 34.0151H110.706C110.627 34.0151 110.559 34.078 110.554 34.1566L110.496 35.9745C110.496 36.0164 110.512 36.0531 110.538 36.0845C110.564 36.1159 110.606 36.1317 110.648 36.1317H114.237L114.017 43.8905H110.114C110.035 43.8905 109.967 43.9534 109.962 44.0319L109.904 45.876C109.904 45.9179 109.92 45.9546 109.946 45.986C109.972 46.0175 110.014 46.0332 110.056 46.0332H119.926C120.01 46.0332 120.073 45.9703 120.078 45.8865L120.12 44.0424C120.12 44.0005 120.104 43.9638 120.078 43.9376C120.052 43.9114 120.01 43.8957 119.973 43.8957L119.958 43.8852Z" fill="white"/>
<path d="M133.087 39.3586C133.212 38.6619 133.291 38.1065 133.338 37.656C133.385 37.195 133.406 36.7863 133.411 36.4406C133.411 36.3986 133.396 36.362 133.37 36.3358C133.343 36.3096 133.301 36.2939 133.265 36.2939H131.882C131.798 36.2939 131.735 36.3567 131.73 36.4406C131.73 36.6501 131.714 36.9487 131.698 37.3416C131.683 37.6927 131.63 38.138 131.546 38.6723C131.08 38.4733 130.635 38.3004 130.231 38.1589C130.341 37.4045 130.41 36.7287 130.436 36.1524C130.467 35.5447 130.488 34.9999 130.509 34.5126C130.509 34.4707 130.493 34.4341 130.467 34.4026C130.441 34.3712 130.399 34.3555 130.357 34.3555H126.03C125.946 34.3555 125.883 34.4183 125.878 34.5022L125.852 35.8538C125.852 35.8957 125.867 35.9324 125.894 35.9586C125.92 35.9848 125.962 36.0005 125.998 36.0005H128.765C128.744 36.5506 128.691 37.174 128.607 37.8603C128.026 37.8289 127.491 37.897 127.02 38.0699C126.496 38.2585 126.072 38.5676 125.757 38.9919C125.448 39.4058 125.213 39.9716 125.066 40.6788C124.893 41.6637 124.987 42.4443 125.349 42.984C125.715 43.534 126.229 43.8379 126.884 43.885C127.455 43.9165 127.937 43.775 128.283 43.4659C128.618 43.1726 128.916 42.7534 129.178 42.2243C129.425 41.7214 129.671 40.9251 129.901 39.8563C130.279 39.9716 130.708 40.1602 131.18 40.4169C130.949 41.4385 130.504 42.7272 129.854 44.2518C129.833 44.2989 129.838 44.3513 129.87 44.3932C129.896 44.4351 129.943 44.4613 129.996 44.4613H131.504C131.562 44.4613 131.62 44.4247 131.641 44.3723C132.102 43.3245 132.468 42.2348 132.736 41.1399C133.039 41.3494 133.375 41.5642 133.726 41.7947C133.773 41.8262 133.831 41.8262 133.878 41.8C133.925 41.7738 133.956 41.7266 133.956 41.669L133.977 40.0135C133.977 39.9611 133.951 39.914 133.904 39.8878C133.642 39.7306 133.37 39.5577 133.081 39.3691L133.087 39.3586ZM127.004 42.1772C126.91 42.1772 126.774 42.1405 126.685 41.8576C126.601 41.6009 126.601 41.2761 126.685 40.8936C126.737 40.705 126.8 40.5112 126.873 40.3226C126.936 40.1549 127.099 39.9663 127.36 39.7673C127.56 39.6101 127.848 39.5315 128.22 39.5315C128.262 39.5315 128.303 39.5315 128.345 39.5315C128.199 40.2335 128.015 40.857 127.79 41.3861C127.57 41.8995 127.308 42.1667 127.004 42.1772Z" fill="white"/>
<path d="M140.379 37.1058L140.395 38.4627C140.395 38.5046 140.411 38.5413 140.442 38.5674C140.468 38.5936 140.505 38.6094 140.547 38.6094C141.385 38.5936 142.118 38.5832 142.721 38.5884C143.339 38.5884 143.774 38.6041 144.052 38.6198C144.093 38.6251 144.13 38.6094 144.162 38.5779C144.193 38.5517 144.209 38.5098 144.209 38.4679V37.0848C144.209 37.0062 144.151 36.9381 144.067 36.9381C143.323 36.9224 142.218 36.9224 140.788 36.9486C140.84 36.9277 140.872 36.8753 140.877 36.8176L140.898 35.4922C140.898 35.4503 140.882 35.4136 140.856 35.3874C140.83 35.3612 140.788 35.3455 140.751 35.3455H139.106C139.174 34.8007 139.221 34.3973 139.242 34.1406C139.242 34.0987 139.232 34.0567 139.2 34.0305C139.174 33.9991 139.132 33.9834 139.09 33.9834H137.723C137.644 33.9834 137.576 34.0463 137.571 34.1248C137.561 34.413 137.529 34.8269 137.472 35.3455H135.91C135.827 35.3455 135.764 35.4136 135.758 35.4922L135.743 36.8176C135.743 36.8596 135.758 36.8962 135.785 36.9224C135.811 36.9486 135.853 36.9643 135.889 36.9643H137.257C137.068 38.1536 136.848 39.369 136.591 40.5792C136.324 41.8522 136.052 43.0205 135.785 44.0421C135.774 44.084 135.785 44.1312 135.811 44.1678C135.837 44.2045 135.884 44.2255 135.931 44.2255H137.403C137.472 44.2255 137.534 44.1783 137.55 44.1102C137.781 43.1305 138.011 42.0723 138.242 40.9564C138.462 39.8929 138.692 38.5517 138.933 36.9643H140.473C140.416 36.9853 140.374 37.0429 140.374 37.1058H140.379Z" fill="white"/>
<path d="M170.681 49.454C169.371 49.454 168.255 49.8574 167.354 50.6537C166.621 51.3243 166.191 52.2254 166.066 53.1212C166.039 53.3098 165.882 53.4513 165.678 53.4513H146.351C145.953 53.4513 145.634 53.7499 145.629 54.1166L145.613 59.0307C145.613 59.4027 145.938 59.7013 146.336 59.7013H163.142C163.357 59.7013 163.535 59.8584 163.546 60.0575C163.808 64.2225 163.619 68.3298 162.723 70.1634C161.068 73.5372 157.977 75.9681 154.21 77.2569C152.696 77.7755 150.537 78.2156 148.463 78.509C148.101 78.5614 147.834 78.8443 147.834 79.1848V85.0209C147.834 85.1048 147.871 85.1886 147.934 85.2462C147.996 85.3038 148.033 85.3353 148.217 85.3353C148.442 85.3353 148.882 85.2829 149.856 85.1571C153.214 84.7223 156.918 83.5226 159.878 82.0295C164.902 79.4886 168.701 75.3028 170.346 70.1843C171.158 67.6487 171.262 64.7987 171.2 62.1793L171.1 58.2606C171.1 58.0667 171.257 57.9096 171.467 57.8886C172.541 57.7838 173.479 57.3857 174.254 56.7046C175.171 55.8978 175.616 54.8972 175.579 53.7394C175.543 52.5868 175.04 51.4762 174.086 50.6642C173.133 49.8574 171.991 49.4487 170.681 49.4487V49.454ZM169.57 52.5816C170.131 52.0839 170.98 52.0577 171.629 52.3773C172.258 52.6811 172.557 53.3779 172.415 54.0537C172.258 54.7924 171.53 55.1801 170.817 55.1801C170.236 55.1801 169.638 54.9129 169.335 54.3995C169.005 53.8442 169.073 53.0217 169.565 52.5816H169.57Z" fill="white"/>
<path d="M204.566 64.353H198.107C197.756 64.353 197.556 64.5154 197.446 64.7669C195.623 68.937 193.722 72.8138 189.604 75.5014C188.436 76.261 186.523 77.0731 185.732 77.1255C185.465 77.1464 185.261 77.0312 185.25 76.7797L184.904 54.1109C184.889 53.7494 184.559 53.4561 184.166 53.4561H178.377C177.973 53.4561 177.654 53.7599 177.664 54.1319L177.89 85.0257C177.89 85.1096 177.932 85.1934 178 85.251C178.062 85.3086 178.146 85.3401 178.246 85.3348C181.007 85.2091 183.584 84.8633 185.523 84.308C187.466 83.7527 190.379 82.773 192.627 81.4056C199.065 77.4922 202.319 71.1845 204.88 64.7669C204.917 64.6726 204.901 64.5678 204.839 64.484C204.776 64.4001 204.666 64.3478 204.561 64.3478L204.566 64.353Z" fill="white"/>
<path d="M232.212 53.4774H225.192C224.935 53.4774 224.7 53.6084 224.579 53.8179C220.844 60.2304 215.055 65.6945 207.448 68.5236C205.824 69.126 205.604 69.2099 205.693 69.1784C205.221 69.3356 205.2 69.7861 205.211 69.959L205.441 75.177C205.473 75.6747 205.908 75.9576 206.421 75.8004C206.688 75.7166 207.076 75.5961 207.663 75.4127C208.799 75.0565 210.46 74.3859 212.357 73.4743C213.902 72.7304 215.505 71.7769 217.135 70.6244C217.391 70.4462 217.763 70.5929 217.784 70.8916L218.203 84.6856C218.229 85.0576 218.565 85.3457 218.963 85.3457H224.736C225.161 85.3457 225.48 85.0261 225.449 84.628L224.469 65.4221C224.459 65.3278 224.49 65.2388 224.553 65.1654C225.773 63.7981 227.476 61.5034 228.88 59.7641C230.358 57.9305 231.583 55.9554 232.532 53.9018C232.574 53.8127 232.558 53.7027 232.49 53.6136C232.422 53.5246 232.317 53.4722 232.202 53.4722L232.212 53.4774Z" fill="white"/>
<path d="M261.241 75.9731C260.282 75.2815 259.103 74.2861 257.741 73.0026C256.499 71.8343 255.221 70.5351 253.938 69.1468C253.828 69.0315 253.801 68.8639 253.88 68.7277C254.991 66.7369 256.274 64.5156 257.097 62.1214C257.972 59.5596 258.516 56.762 258.721 53.802C258.726 53.7077 258.689 53.6134 258.621 53.5401C258.553 53.4667 258.454 53.4248 258.359 53.4248H235.277C234.863 53.4248 234.548 53.7391 234.585 54.1216L234.826 59.3605C234.842 59.5386 234.999 59.6801 235.182 59.6801H249.72C249.998 59.6801 250.202 59.9315 250.113 60.1725C247.41 67.858 241.972 73.9561 234.716 77.6652C234.606 77.7229 234.548 77.8381 234.559 77.9639L234.873 85.1412C234.894 85.4188 235.093 85.5288 235.292 85.5079C235.57 85.4817 235.795 85.3926 236.015 85.3088C238.96 84.172 241.92 82.6265 244.335 80.5886C244.864 80.1432 245.382 79.6822 245.885 79.2055C247.295 77.8958 248.672 76.3608 249.982 74.6529C250.134 74.4538 250.443 74.4433 250.611 74.6319C251.9 76.0464 253.225 77.3771 254.551 78.5873C256.101 80.0018 257.568 81.2225 258.904 82.2179C260.245 83.2133 261.749 84.2558 263.383 85.3141C263.493 85.3874 263.624 85.3926 263.729 85.335C263.834 85.2774 263.886 85.1621 263.871 85.0364C263.74 83.9939 263.609 82.9513 263.483 81.9088C263.31 80.5257 263.163 79.1374 262.964 77.7595C262.943 77.6129 262.922 77.4609 262.886 77.3195C262.875 77.2828 262.865 77.2409 262.849 77.2042C262.807 77.1047 262.702 77.0471 262.624 76.9789C262.456 76.8532 262.079 76.586 261.225 75.9731H261.241Z" fill="white"/>
<path d="M144.219 42.5437C143.947 42.5594 143.633 42.5803 143.271 42.596C142.915 42.6118 142.496 42.6222 141.988 42.6222C141.123 42.617 140.678 42.4022 140.667 41.9936C140.652 41.5273 140.83 41.0401 141.202 40.5476C141.233 40.5057 141.238 40.4429 141.217 40.3905C141.196 40.3381 141.139 40.3066 141.081 40.3066H139.682C139.63 40.3066 139.583 40.3328 139.557 40.3747C139.373 40.6576 139.237 40.9196 139.159 41.1658C139.08 41.4121 139.033 41.7316 139.017 42.1245C139.017 42.4703 139.096 42.8056 139.258 43.1147C139.42 43.429 139.709 43.6962 140.107 43.911C140.5 44.1153 141.008 44.2358 141.61 44.262C142.056 44.2882 142.433 44.2987 142.758 44.2987C142.883 44.2987 142.999 44.2987 143.109 44.2987C143.507 44.2882 143.879 44.2673 144.23 44.2411C144.308 44.2358 144.366 44.173 144.366 44.0944V42.7008C144.366 42.6589 144.356 42.6222 144.324 42.5908C144.293 42.5646 144.256 42.5384 144.214 42.5489L144.219 42.5437Z" fill="white"/>
<path d="M150.705 41.3594C150.652 41.3385 150.589 41.349 150.542 41.3856C150.385 41.5271 150.139 41.7 149.809 41.9043C149.494 42.0929 149.191 42.1977 148.929 42.2029C148.724 42.182 148.441 42.0824 148.352 41.5271C148.274 41.0451 148.237 40.4479 148.237 39.7563C148.248 39.222 148.258 38.6405 148.269 38.0065C148.279 37.3726 148.295 36.7702 148.316 36.1939C148.331 35.6386 148.358 35.0832 148.394 34.5331C148.394 34.4912 148.384 34.4493 148.352 34.4231C148.326 34.3917 148.284 34.376 148.242 34.376H146.859C146.781 34.376 146.713 34.4388 146.707 34.5174C146.681 35.1513 146.66 35.78 146.644 36.4087C146.629 37.0321 146.618 37.687 146.613 38.3733C146.608 39.0596 146.603 39.6778 146.603 40.2383C146.603 41.6004 146.781 42.5382 147.163 43.0935C147.519 43.6174 148.001 43.8794 148.604 43.8794C148.661 43.8794 148.724 43.8794 148.787 43.8741C149.206 43.827 149.589 43.7222 149.919 43.5545C150.249 43.3921 150.521 43.2245 150.731 43.0464C150.762 43.0202 150.783 42.9783 150.783 42.9311V41.5009C150.783 41.4433 150.747 41.3909 150.694 41.3647L150.705 41.3594Z" fill="white"/>
<path d="M153.785 34.4861C153.764 34.4233 153.707 34.3813 153.638 34.3813H152.297C152.25 34.3813 152.203 34.4023 152.177 34.4442C152.151 34.4861 152.14 34.5333 152.156 34.5804C152.303 34.9943 152.449 35.6334 152.601 36.4822C152.748 37.3361 152.868 38.2058 152.947 39.0807C153.025 39.9555 153.083 40.7361 153.104 41.3962C153.13 42.0511 153.136 42.7479 153.13 43.4604C153.13 43.5023 153.146 43.539 153.172 43.5652C153.198 43.5914 153.24 43.6071 153.277 43.6071H154.629C154.712 43.6071 154.781 43.539 154.781 43.4604C154.796 41.5953 154.728 39.9189 154.566 38.4834C154.409 37.0532 154.141 35.7068 153.78 34.4861H153.785Z" fill="white"/>
<path d="M165.526 40.3595C165.028 40.0871 164.557 39.867 164.111 39.7046L164.075 36.797C164.588 36.8075 165.007 36.839 165.311 36.8861C165.348 36.8913 165.4 36.8809 165.432 36.8494C165.463 36.818 165.484 36.7813 165.484 36.7342L165.468 35.3825C165.468 35.3092 165.411 35.2463 165.337 35.2359C164.897 35.173 164.415 35.1415 163.918 35.1311C163.409 35.1258 162.954 35.1311 162.555 35.173C162.477 35.1782 162.419 35.2463 162.419 35.3249L162.477 39.317C161.513 39.2331 160.737 39.4427 160.166 39.9404C159.564 40.4695 159.26 41.1925 159.255 42.0936C159.26 42.7589 159.433 43.2881 159.774 43.66C160.104 44.0215 160.486 44.2835 160.921 44.4249C161.298 44.5506 161.67 44.6135 162.021 44.6135C162.068 44.6135 162.115 44.6135 162.157 44.6135C162.461 44.6135 162.76 44.5611 163.037 44.4511C163.326 44.3411 163.587 44.1263 163.813 43.8119C164.043 43.4924 164.153 43.0261 164.148 42.3817L164.138 41.4911C164.541 41.6902 164.965 41.9364 165.39 42.2298C165.437 42.2612 165.494 42.2665 165.547 42.2403C165.599 42.2141 165.625 42.1617 165.625 42.1093L165.604 40.4957C165.604 40.4433 165.573 40.3962 165.526 40.37V40.3595ZM162.508 42.2088C162.508 42.4498 162.493 42.6541 162.456 42.8113C162.445 42.8585 162.419 42.9632 162.157 42.9842C161.764 43.0156 161.455 42.9528 161.209 42.8008C160.984 42.6594 160.874 42.3974 160.874 42.0202C160.9 41.6326 161.052 41.3497 161.335 41.1453C161.523 41.0091 161.785 40.941 162.105 40.941C162.225 40.941 162.351 40.9515 162.493 40.9672L162.508 42.2088Z" fill="white"/>
<path d="M161.602 36.8332C161.644 36.8332 161.68 36.8175 161.707 36.7913C161.733 36.7651 161.748 36.7232 161.748 36.6865L161.733 35.3454C161.733 35.2615 161.665 35.1987 161.581 35.1987H160.172C160.245 34.8162 160.313 34.4443 160.376 34.0723C160.381 34.0304 160.376 33.9832 160.344 33.9518C160.318 33.9204 160.276 33.8994 160.229 33.8994H158.862C158.788 33.8994 158.72 33.957 158.715 34.0304C158.678 34.3342 158.616 34.7167 158.527 35.1987H157.112C157.07 35.1987 157.033 35.2144 157.007 35.2406C156.981 35.2668 156.965 35.3087 156.965 35.3454L156.976 36.6865C156.976 36.7703 157.044 36.8332 157.128 36.8332H158.254C158.034 37.9596 157.61 39.7041 156.981 42.025C156.971 42.0669 156.981 42.114 157.007 42.1507C157.033 42.1874 157.081 42.2083 157.128 42.2083H158.558C158.626 42.2083 158.684 42.1664 158.705 42.1036C158.909 41.4068 159.307 39.6832 159.931 36.8332H161.612H161.602Z" fill="white"/>
<path d="M183.563 32.2333H177.544C177.738 31.6518 177.916 30.9917 178.073 30.2635C178.083 30.2216 178.073 30.1797 178.047 30.1482C178.021 30.1116 177.984 30.0906 177.942 30.0854L176.082 29.8549C176.004 29.8444 175.935 29.8968 175.914 29.9701C175.726 30.824 175.516 31.5837 175.296 32.2386H170.524C170.482 32.2386 170.445 32.2543 170.419 32.2805C170.393 32.3067 170.377 32.3486 170.377 32.3852L170.628 46.6403C170.628 46.7189 170.697 46.787 170.78 46.787H172.609C172.651 46.787 172.687 46.7713 172.714 46.7451C172.74 46.7189 172.755 46.677 172.755 46.6403L172.74 45.8807H181.965L181.986 46.6456C181.986 46.7241 182.054 46.7922 182.138 46.7922H183.967C184.009 46.7922 184.045 46.7765 184.077 46.7451C184.103 46.7189 184.119 46.677 184.119 46.6403L183.715 32.3852C183.715 32.3067 183.647 32.2386 183.563 32.2386V32.2333ZM181.918 43.958H172.708L172.666 41.8624H181.861L181.918 43.958ZM181.814 40.0131H172.635L172.598 37.9699H181.761L181.814 40.0131ZM172.525 34.1508H181.656L181.709 36.1468H172.562L172.525 34.1508Z" fill="white"/>
<path d="M200.705 30.7773H193.878C193.837 30.7773 193.8 30.7931 193.768 30.8245C193.742 30.8559 193.727 30.8926 193.727 30.9345L193.784 32.4486C193.784 32.5271 193.852 32.59 193.936 32.59H194.47L194.125 33.0667C194.098 33.0982 194.093 33.1401 194.098 33.182C194.104 33.2239 194.13 33.2553 194.167 33.2763C195.136 33.8683 196 34.4289 196.739 34.9423C195.854 35.2985 194.884 35.6233 193.852 35.922C193.816 35.9324 193.779 35.9586 193.763 35.9953C193.747 36.032 193.742 36.0739 193.753 36.1106L194.209 37.5093L193.381 37.4098C193.402 37.2474 193.407 37.0274 193.396 36.7445L193.187 30.924C193.187 30.8454 193.119 30.7826 193.035 30.7826H186.24C186.198 30.7826 186.162 30.7983 186.13 30.8297C186.099 30.8612 186.088 30.8978 186.088 30.9398L186.135 32.4538C186.135 32.5324 186.203 32.5952 186.287 32.5952H186.837L186.444 33.1244C186.418 33.1558 186.408 33.1977 186.418 33.2396C186.429 33.2815 186.45 33.3182 186.486 33.3392C187.529 33.9888 188.404 34.5546 189.09 35.0261C188.194 35.3823 187.22 35.7124 186.177 36.0215C186.141 36.032 186.104 36.0582 186.088 36.0948C186.072 36.1315 186.067 36.1734 186.078 36.2101L186.544 37.6822C186.57 37.7608 186.649 37.8027 186.727 37.7818C187.408 37.5827 188.131 37.3365 188.886 37.0431L188.975 38.0647C188.98 38.138 189.043 38.1956 189.116 38.2009C190.368 38.248 191.165 38.2742 191.479 38.2742C191.909 38.2742 192.239 38.2585 192.48 38.2271C192.433 38.4052 192.38 38.6043 192.312 38.8243H187.89C187.848 38.8243 187.812 38.84 187.78 38.8715C187.749 38.9029 187.738 38.9396 187.738 38.9815L187.985 46.756C187.985 46.8346 188.053 46.8975 188.137 46.8975H189.965C190.007 46.8975 190.044 46.8818 190.075 46.8503C190.106 46.8189 190.117 46.7822 190.117 46.7403L190.096 46.164H198.363L198.384 46.7508C198.384 46.8294 198.452 46.8922 198.536 46.8922H200.38C200.422 46.8922 200.459 46.8765 200.49 46.8451C200.516 46.8136 200.532 46.777 200.532 46.7351L200.207 38.9605C200.207 38.8819 200.139 38.8191 200.055 38.8191H194.565C194.701 38.3109 194.785 37.9599 194.827 37.7556C194.837 37.7137 194.827 37.6717 194.8 37.6403C194.785 37.6141 194.759 37.5984 194.727 37.5879C195.303 37.3993 195.916 37.1898 196.561 36.9488L196.66 38.0647C196.666 38.138 196.728 38.1956 196.802 38.2009C198.054 38.248 198.845 38.2742 199.149 38.2742C200.307 38.2742 200.631 38.1275 200.773 38.0175C201.014 37.8342 201.113 37.4203 201.087 36.7549L200.841 30.9345C200.841 30.8559 200.773 30.7931 200.689 30.7931L200.705 30.7773ZM191.348 36.2153C191.348 36.3568 191.348 36.4249 191.338 36.4511C191.296 36.4616 191.196 36.472 190.955 36.472C190.908 36.472 190.677 36.4668 190.269 36.4563C190.573 36.3096 190.913 36.142 191.285 35.9482C191.306 35.9377 191.327 35.922 191.338 35.901L191.348 36.2153ZM190.232 33.8473C190.253 33.8159 190.264 33.774 190.258 33.7373C190.253 33.7007 190.232 33.664 190.196 33.643C189.651 33.2658 189.116 32.9148 188.603 32.59H191.222L191.327 35.681L190.95 34.3817C190.939 34.3398 190.908 34.3031 190.866 34.2874C190.845 34.2769 190.824 34.2769 190.803 34.2769C190.782 34.2769 190.756 34.2769 190.735 34.2927C190.347 34.4813 189.939 34.6699 189.509 34.848L190.222 33.8526L190.232 33.8473ZM198.29 44.3461H190.033L190.002 43.3193H198.253L198.295 44.3461H198.29ZM189.913 40.6422H198.143L198.18 41.6114H189.944L189.913 40.6422ZM199.018 36.2206C199.023 36.3568 199.018 36.4249 199.007 36.4563C198.965 36.4668 198.871 36.4773 198.641 36.4773C198.41 36.4773 198.127 36.472 197.76 36.4563C198.211 36.2572 198.62 36.0582 198.981 35.8591C198.986 35.8591 198.997 35.8486 199.002 35.8486L199.018 36.2206ZM197.902 33.795C197.923 33.7635 197.933 33.7216 197.928 33.6849C197.923 33.643 197.897 33.6116 197.865 33.5906C197.436 33.292 196.922 32.9567 196.341 32.5952H198.866L198.981 35.4714L198.62 34.2927C198.609 34.2507 198.578 34.2141 198.536 34.1984C198.52 34.1879 198.499 34.1879 198.478 34.1879C198.457 34.1879 198.431 34.1879 198.41 34.2036C198.022 34.3974 197.614 34.5808 197.189 34.7642L197.902 33.8002V33.795Z" fill="white"/>
<path d="M218.601 44.6658C218.601 44.5872 218.533 44.5244 218.449 44.5244H211.927L211.843 42.916H216.998C217.04 42.916 217.077 42.9003 217.108 42.8689C217.134 42.8374 217.15 42.8008 217.15 42.7588L217.066 41.2186C217.066 41.14 216.998 41.0772 216.914 41.0772H211.754L211.665 39.3588C213.242 39.2121 214.389 39.1073 215.107 39.0392C215.248 39.2069 215.568 39.6207 216.107 40.328C216.154 40.3856 216.238 40.4013 216.301 40.3647L217.784 39.516C217.82 39.495 217.847 39.4583 217.857 39.4164C217.868 39.3745 217.857 39.3326 217.831 39.2959C217.071 38.3005 216.144 37.1794 215.065 35.9587H216.699C216.741 35.9587 216.778 35.943 216.809 35.9116C216.836 35.8802 216.851 35.8435 216.851 35.8016L216.825 35.2777H217.831C217.873 35.2777 217.91 35.262 217.941 35.2305C217.972 35.1991 217.983 35.1624 217.983 35.1205L217.789 31.6209C217.789 31.5423 217.721 31.4795 217.637 31.4795H211.267L211.193 30.0912C211.193 30.0126 211.125 29.9497 211.041 29.9497H209.187C209.145 29.9497 209.108 29.9654 209.077 29.9969C209.051 30.0283 209.035 30.065 209.035 30.1069L209.103 31.4795H202.748C202.706 31.4795 202.67 31.4952 202.638 31.5266C202.607 31.5581 202.596 31.5947 202.596 31.6366L202.748 35.1362C202.748 35.2148 202.816 35.2777 202.9 35.2777H203.922L203.943 35.8173C203.943 35.8959 204.011 35.9587 204.095 35.9587H207.049C206.745 36.6503 206.436 37.3051 206.138 37.9076C205.022 37.9548 204.21 37.981 203.707 37.9914C203.665 37.9914 203.623 38.0124 203.597 38.0438C203.571 38.0753 203.555 38.1172 203.56 38.1591L203.712 39.6888C203.717 39.7674 203.77 39.8303 203.864 39.8198C205.802 39.7622 207.694 39.6626 209.491 39.5264L209.569 41.0772H204.252C204.21 41.0772 204.173 41.0929 204.142 41.1243C204.11 41.1557 204.1 41.1924 204.1 41.2343L204.168 42.7746C204.168 42.8531 204.236 42.916 204.32 42.916H209.658L209.737 44.5244H203.23C203.188 44.5244 203.152 44.5401 203.12 44.5715C203.089 44.6029 203.078 44.6396 203.078 44.6815L203.146 46.2846C203.146 46.3632 203.214 46.4261 203.298 46.4261H218.528C218.57 46.4261 218.606 46.4104 218.638 46.3789C218.669 46.3475 218.68 46.3108 218.68 46.2689L218.591 44.6658H218.601ZM204.755 33.2974H215.803L215.851 34.1775H204.791L204.749 33.2974H204.755ZM209.271 35.9587H212.534C212.859 36.3307 213.257 36.8022 213.729 37.3575C211.691 37.5461 209.925 37.6823 208.479 37.7662C208.747 37.2108 209.009 36.6031 209.265 35.9587H209.271Z" fill="white"/>
<path d="M294.073 117.738C294.015 117.419 292.978 111.677 292.978 111.677V111.666L272.305 8.15578C272.295 8.10863 272.153 7.40662 272.054 6.89844L271.959 6.43218C271.886 6.06546 271.64 5.91877 271.43 5.87162C258.254 3.14738 247.41 1.5076 237.314 0.706052C221.079 -0.577481 205.478 -0.0902629 190.934 2.16247C175.097 4.61428 160.57 9.16165 147.745 15.6789C135.522 9.06735 121.424 4.48854 105.849 2.06293C91.7775 -0.142652 76.5217 -0.577481 60.5064 0.747963C50.7725 1.54952 40.1847 3.16834 27.1974 5.85066C26.9459 5.90305 26.7416 6.09689 26.684 6.34836L26.2754 8.06148L1.55817 111.483L0.0179349 117.916C-0.0292153 118.115 0.0179349 118.325 0.143669 118.482C0.269403 118.639 0.463242 118.733 0.66756 118.733C0.726934 118.733 1.82536 118.44 3.96283 117.853L7.08523 116.999C23.2892 112.478 38.7702 109.67 53.1038 108.67C68.6581 107.569 83.4528 108.601 97.0792 111.729C112.11 115.181 125.715 121.201 137.524 129.62C142.16 133.004 145.282 135.477 146.797 136.965C146.927 137.091 147.095 137.153 147.263 137.153C147.43 137.153 147.588 137.096 147.713 136.975L149.484 135.346L149.694 135.147C149.762 135.084 149.825 135.021 149.882 134.964C160.942 125.45 174.175 118.351 189.226 113.861C202.512 109.901 217.092 107.983 232.557 108.172C249.631 108.539 268.098 111.472 287.446 116.884L290.332 117.691C292.108 118.189 292.826 118.388 293.13 118.466C293.229 118.508 293.318 118.519 293.376 118.519C293.381 118.519 293.392 118.519 293.397 118.519C293.764 118.519 294.062 118.22 294.062 117.853C294.062 117.806 294.062 117.764 294.047 117.722L294.073 117.738ZM147.975 21.7455L149.316 20.9702C149.316 20.9702 149.343 20.9544 149.353 20.9492C161.837 14.3377 176.155 9.75365 191.914 7.31756C206.122 5.12245 221.493 4.66143 237.603 5.95544C246.97 6.74128 256.719 8.16626 266.584 10.178C266.993 12.8394 268.832 24.7893 271.079 39.4059C274.783 63.4892 279.797 96.0857 281.054 104.248C262.461 100.057 244.764 98.1288 228.445 98.527C219.471 98.747 210.743 99.6691 202.512 101.277C193.873 102.964 185.538 105.453 177.738 108.67C172.179 110.996 166.809 113.767 161.764 116.9C156.588 120.117 151.726 123.742 147.31 127.682C146.917 127.31 146.519 126.932 146.131 126.566C144.753 125.251 143.328 123.889 141.861 122.767C141.861 122.767 141.861 122.767 141.856 122.767C129.618 113.662 115.499 107.009 99.8925 102.985C88.0054 99.9205 75.2487 98.3751 61.879 98.3751C59.3591 98.3751 56.8182 98.4274 54.2564 98.5375C41.5992 99.0718 28.0356 100.937 13.9377 104.085L31.8915 10.1937C41.5835 8.20817 51.1183 6.7989 60.2287 6.00259C76.1026 4.67191 91.0964 5.0753 104.801 7.2023C120.246 9.60172 134.087 14.2067 145.932 20.8916L147.289 21.735C147.499 21.866 147.76 21.8712 147.975 21.7455Z" fill="white"/>
</svg>
